<svg width="25" height="24" viewBox="0 0 25 24" fill="none" xmlns="http://www.w3.org/2000/svg">
<g clip-path="url(#clip0_222_830)">
<path d="M4.283 2.826L12.5 1L20.717 2.826C20.9391 2.87536 21.1377 2.99897 21.28 3.1764C21.4224 3.35384 21.5 3.57452 21.5 3.802V13.789C21.4999 14.7767 21.256 15.7492 20.7899 16.62C20.3238 17.4908 19.6499 18.2331 18.828 18.781L12.5 23L6.172 18.781C5.35027 18.2332 4.67646 17.4911 4.21035 16.6205C3.74424 15.7498 3.50024 14.7776 3.5 13.79V3.802C3.50004 3.57452 3.57764 3.35384 3.71999 3.1764C3.86234 2.99897 4.06094 2.87536 4.283 2.826ZM5.5 4.604V13.789C5.50001 14.4475 5.66257 15.0957 5.97326 15.6763C6.28395 16.2568 6.73315 16.7517 7.281 17.117L12.5 20.597L17.719 17.117C18.2667 16.7518 18.7158 16.2571 19.0265 15.6767C19.3372 15.0964 19.4998 14.4483 19.5 13.79V4.604L12.5 3.05L5.5 4.604Z" fill="white"/>
</g>
<defs>
<clipPath id="clip0_222_830">
<rect width="24" height="24" fill="white" transform="translate(0.5)"/>
</clipPath>
</defs>
</svg>
